Silence - Le silence - Sokout
1998 - Mohsen Makhmalbaf.


English + French sub (in mkv container)

Video:
ID                               : 1
Format                           : AVC
Format/Info                      : Advanced Video Codec
Format profile                   : High@L4.1
Format settings, CABAC           : Yes
Format settings, ReFrames        : 5 frames
Muxing mode                      : Container profile=Unknown@4.1
Codec ID                         : V_MPEG4/ISO/AVC
Duration                         : 1h 13mn
Bit rate                         : 1 327 Kbps
Nominal bit rate                 : 1 400 Kbps
Width                            : 720 pixels
Height                           : 576 pixels
Display aspect ratio             : 16:9
Frame rate                       : 25.000 fps
Standard                         : PAL
Resolution                       : 8 bits
Colorimetry                      : 4:2:0
Scan type                        : Progressive
Bits/(Pixel*Frame)               : 0.128
Stream size                      : 693 MiB (87%)   

Audio
ID                               : 2
Format                           : Vorbis
Format settings, Floor           : 1
Codec ID                         : A_VORBIS
Duration                         : 1h 13mn
Bit rate mode                    : Constant
Bit rate                         : 160 Kbps
Channel(s)                       : 2 channels
Sampling rate                    : 48.0 KHz
Stream size                      : 83.6 MiB (11%)
Writing library                  : libVorbis 20090709 (UTC 2009-07-09)
Language                         : Persian

Text #1
ID                               : 3
Format                           : VobSub
Codec ID                         : S_VOBSUB
Codec ID/Info                    : The same subtitle format used on DVDs
Language                         : English

Text #2
ID                               : 4
Format                           : VobSub
Codec ID                         : S_VOBSUB
Codec ID/Info                    : The same subtitle format used on DVDs
Language                         : French


Enjoy!

Please seed at least as much as you download
& If you enjoy: seed more & comment!



